<?xml version="1.0" standalone="no"?>
<!DOCTYPE svg PUBLIC "-//W3C//DTD SVG 20010904//EN"
 "http://www.w3.org/TR/2001/REC-SVG-20010904/DTD/svg10.dtd">
<svg version="1.0" xmlns="http://www.w3.org/2000/svg"
 width="500.000000pt" height="500.000000pt" viewBox="0 0 500.000000 500.000000"
 preserveAspectRatio="xMidYMid meet">
<metadata>
Created by potrace 1.11, written by Peter Selinger 2001-2013
</metadata>
<g transform="translate(0.000000,500.000000) scale(0.100000,-0.100000)"
fill="#000000" stroke="none">
<path d="M1462 4163 c-212 -360 -946 -1643 -949 -1658 -2 -12 184 -343 491
-875 l494 -855 1002 0 1002 0 494 855 c271 470 494 862 494 870 0 8 -223 400
-494 870 l-494 855 -1000 3 -1000 2 -40 -67z m-171 -1484 c6 -12 28 -48 48
-81 l38 -59 52 81 51 81 43 -3 42 -3 0 -225 0 -225 -42 -3 -43 -3 0 145 c0 80
-3 146 -7 146 -5 0 -22 -24 -38 -53 -23 -39 -37 -53 -57 -55 -22 -3 -31 5 -59
55 l-34 58 -3 -147 -3 -148 -44 0 -45 0 0 230 0 230 45 0 c35 0 47 -4 56 -21z
m607 1 c35 -22 78 -100 68 -126 -3 -9 -20 -14 -44 -14 -34 0 -39 3 -50 34 -20
54 -79 67 -124 28 -15 -13 -18 -33 -18 -132 0 -99 3 -119 18 -132 45 -40 99
-28 125 28 14 29 22 34 52 34 46 0 52 -17 26 -74 -29 -67 -68 -88 -156 -84
-51 2 -77 9 -97 23 -51 39 -58 62 -58 205 0 150 12 183 73 214 47 23 144 21
185 -4z m387 6 c52 -22 77 -69 72 -135 -4 -49 -8 -59 -41 -87 l-37 -32 41 -87
c22 -48 40 -92 40 -96 0 -5 -20 -9 -44 -9 l-43 0 -41 93 c-40 89 -42 92 -74
92 l-33 0 -3 -93 -3 -93 -42 3 -42 3 -3 215 c-1 118 0 220 2 227 8 19 206 18
251 -1z m507 4 c52 -15 78 -51 78 -111 0 -36 -6 -55 -25 -77 -20 -24 -22 -31
-11 -35 28 -11 49 -67 43 -116 -10 -88 -69 -115 -237 -109 l-85 3 -3 215 c-1
118 0 220 2 227 7 16 183 18 238 3z m238 -230 c0 -97 2 -112 20 -130 11 -11
27 -20 35 -20 8 0 24 9 35 20 18 18 20 33 20 130 l0 110 45 0 45 0 0 -165 0
-165 -45 0 c-34 0 -45 4 -45 16 0 14 -2 14 -22 0 -13 -9 -43 -16 -69 -16 -54
0 -93 30 -103 81 -8 42 -8 234 1 242 3 4 24 7 45 7 l38 0 0 -110z m500 69 c0
-37 -7 -49 -70 -119 -38 -43 -70 -80 -70 -84 0 -3 34 -6 75 -6 l75 0 0 -40 0
-40 -130 0 -130 0 0 44 c0 41 5 50 70 119 39 41 70 78 70 81 0 3 -31 6 -70 6
l-70 0 0 40 0 40 125 0 125 0 0 -41z m300 0 c0 -38 -6 -48 -75 -118 -41 -43
-75 -80 -75 -84 0 -4 34 -7 75 -7 l75 0 0 -40 0 -40 -130 0 -130 0 0 43 c1 38
7 49 75 122 l74 80 -74 3 -75 3 0 33 c0 18 3 36 7 39 3 4 62 7 130 7 l123 0 0
-41z"/>
<path d="M2120 2560 l0 -60 58 0 c66 0 92 18 92 62 0 40 -29 58 -93 58 l-57 0
0 -60z"/>
<path d="M2640 2565 l0 -55 53 0 c63 0 90 16 90 55 0 39 -27 55 -90 55 l-53 0
0 -55z"/>
<path d="M2640 2375 l0 -55 58 0 c80 0 111 35 82 91 -9 16 -22 19 -75 19 l-65
0 0 -55z"/>
</g>
</svg>
